<svg id="Layer_1" data-name="Layer 1" xmlns="http://www.w3.org/2000/svg" viewBox="0 0 500 500"><defs><style>.cls-1{fill:#1e194e;}</style></defs><title>TOP_logo</title><path class="cls-1" d="M359.63,253.35l4.24,7.27.24.43,21.19,36.62a14.82,14.82,0,1,0,10-6.46l-14-24.11c-9.15-14.33-3-21.76-3-21.76l61.89-110.43a14.67,14.67,0,0,0,7.49-1.93,14.85,14.85,0,0,0-14.87-25.71,14.7,14.7,0,0,0-6.32,7.46l-78-.4a14.91,14.91,0,0,1-11.73-6.25L313.47,67.9l-20.24-.84,27.69,47.87s5.16,10.24,16.5,10l88.31-1.75a14.84,14.84,0,0,0,.88,2.77l-54.16,94L361,238.41S355.14,245.65,359.63,253.35Zm33.56,44.8A8.87,8.87,0,1,1,390,310.26,8.86,8.86,0,0,1,393.19,298.15ZM444.63,127.8a8.87,8.87,0,1,1,3.23-12.11A8.88,8.88,0,0,1,444.63,127.8Z"/><path class="cls-1" d="M307.28,158.09l8.42.07h.49l42.31.46a14.81,14.81,0,1,0-.48-11.86l-27.87-.27c-17,.56-20.26-8.49-20.26-8.49L246.48,28.43A14.69,14.69,0,0,0,248.64,21a14.85,14.85,0,1,0-26.51,8.92L182,96.79a14.93,14.93,0,0,1-11.36,6.9l-46.42-.51-11,17,55.31.6s11.43.79,17-9.08l43.55-76.85a13.93,13.93,0,0,0,2.82.65L285.1,130l10,19.29S298.37,158,307.28,158.09Zm55.66-6a8.86,8.86,0,1,1,8.76,9A8.87,8.87,0,0,1,362.94,152.08ZM242.66,20.94a8.87,8.87,0,1,1-8.77-9A8.88,8.88,0,0,1,242.66,20.94Z"/><path class="cls-1" d="M198.45,153.54l4.21-7.29.25-.43,21.26-36.57a14.82,14.82,0,1,0-10.55-5.44l-14,24.11c-7.89,15.06-17.37,13.44-17.37,13.44L55.67,142.5a14.65,14.65,0,0,0-5.4-5.55A14.85,14.85,0,1,0,45,164.41l38.38,67.88a14.92,14.92,0,0,1,.41,13.29L60.42,285.71l9.32,18,27.8-47.82s6.32-9.56.49-19.29L52.65,160.81a14.89,14.89,0,0,0,2-2.14L163.1,159l21.72.79S194,161.26,198.45,153.54Zm22.22-51.39a8.86,8.86,0,1,1,12.11-3.21A8.87,8.87,0,0,1,220.67,102.15Zm-173.4,40a8.87,8.87,0,1,1-12.12,3.21A8.89,8.89,0,0,1,47.27,142.12Z"/><path class="cls-1" d="M139.82,246.8l-4.25-7.27c-.14-.25-.25-.42-.25-.42L114.11,202.5a14.83,14.83,0,1,0-10,6.47l14,24.1c9.16,14.32,3.06,21.75,3.06,21.75L59.42,365.31a14.7,14.7,0,0,0-7.49,1.94,14.85,14.85,0,0,0,14.9,25.69,14.68,14.68,0,0,0,6.31-7.46l78,.33a14.91,14.91,0,0,1,11.74,6.24l23.28,40.16,20.25.82-27.74-47.85s-5.17-10.23-16.51-10L73.83,377a14.14,14.14,0,0,0-.88-2.77l54.08-94,11.46-18.47S144.31,254.49,139.82,246.8ZM106.21,202a8.86,8.86,0,1,1,3.23-12.11A8.87,8.87,0,0,1,106.21,202ZM54.93,372.43a8.87,8.87,0,1,1-3.22,12.11A8.88,8.88,0,0,1,54.93,372.43Z"/><path class="cls-1" d="M301.52,347.39l-4.14,7.33-.25.43L276.2,391.91a14.82,14.82,0,1,0,10.6,5.34L300.57,373c7.76-15.13,17.25-13.6,17.25-13.6l126.57-2.27a14.85,14.85,0,1,0,10.52-22l-39-67.54a14.91,14.91,0,0,1-.53-13.28l23-40.34-9.48-17.9-27.37,48.06s-6.24,9.61-.32,19.3l46.06,75.36A14.42,14.42,0,0,0,445.3,341l-108.48.64L315.09,341S305.9,339.63,301.52,347.39ZM279.77,399a8.87,8.87,0,1,1-12.09,3.32A8.87,8.87,0,0,1,279.77,399Zm173-41.52a8.87,8.87,0,1,1,12.09-3.32A8.87,8.87,0,0,1,452.8,357.45Z"/><path class="cls-1" d="M192,342.68l-8.42,0h-.49l-42.31,0a14.82,14.82,0,1,0,.6,11.86l27.87,0c17-.74,20.35,8.27,20.35,8.27l64.56,108.9A14.84,14.84,0,1,0,278.5,470l39.42-67.29c3.88-6.63,11.29-7,11.29-7l46.42,0,10.87-17.1-55.31,0s-11.44-.67-16.93,9.26l-42.74,77.3a14,14,0,0,0-2.83-.62l-54.21-94-10.22-19.18S200.92,342.66,192,342.68Zm-55.59,6.6a8.87,8.87,0,1,1-8.86-8.86A8.87,8.87,0,0,1,136.42,349.28ZM258.07,479.15a8.87,8.87,0,1,1,8.86,8.87A8.87,8.87,0,0,1,258.07,479.15Z"/><path class="cls-1" d="M160.72,233.85c-1.42,0-1.86-.71-1.31-2.13l4.52-11.16a3.2,3.2,0,0,1,3-2.22H218.5q2.3,0,1.32,2.22l-4.52,11.16a3,3,0,0,1-3,2.13Zm30.78,3.53c1.42,0,1.86.71,1.31,2.14l-14.44,35.7a3.22,3.22,0,0,1-3,2.21H162.45c-1.53,0-2-.74-1.32-2.21l14.45-35.7a3,3,0,0,1,3-2.14Z"/><path class="cls-1" d="M209.11,263.56l12.72-31.35q3.12-7.71,7.43-10.79t12-3.08H269.1q5.91,0,8.34,4t0,9.85l-12.73,31.35q-3.11,7.72-7.46,10.8t-12.07,3.07h-9.76c-1.48,0-1.89-.74-1.24-2.21l4.52-11.16a3,3,0,0,1,2.95-2.14h5.67a1.07,1.07,0,0,0,1.14-.82l10.67-26.43c.17-.54,0-.82-.49-.82H239.23a1.09,1.09,0,0,0-1.15.82L227.41,261.1c-.16.55,0,.82.49.82h5.67c1.42,0,1.86.71,1.31,2.14l-4.51,11.16a3.22,3.22,0,0,1-3,2.21H217.4q-5.84,0-8.25-4T209.11,263.56Z"/><path class="cls-1" d="M285.45,275.3a3.08,3.08,0,0,1-3.12,2.13H269.44q-2.22,0-1.23-2.13l22.08-54.74a3,3,0,0,1,2.95-2.14h37.92q5.82,0,8.25,4t0,9.84l-6,14.86q-3.12,7.71-7.43,10.79T314,261H297.1q-2.22,0-1.23-2.22l4.18-10.5a4.31,4.31,0,0,1,1.11-1.77,3.68,3.68,0,0,1,1.93-.37h12.64a1.16,1.16,0,0,0,1.15-.73l4.35-10.84c.22-.49,0-.74-.49-.74h-17.9a1.15,1.15,0,0,0-1.14.74Z"/></svg>