<svg id="Layer_1" data-name="Layer 1" xmlns="http://www.w3.org/2000/svg" viewBox="0 0 500 500"><defs><style>.cls-1{fill:#fff;}</style></defs><title>TOP_logo</title><path class="cls-1" d="M355.13,253.21l4.06,7,.24.41,20.32,35.11a14.22,14.22,0,1,0,9.55-6.19L375.89,266.4c-8.77-13.75-2.92-20.87-2.92-20.87l59.36-105.9a14.06,14.06,0,0,0,7.19-1.85,14.24,14.24,0,1,0-20.33-17.5l-74.78-.39a14.29,14.29,0,0,1-11.25-6L310.87,75.37l-19.41-.81L318,120.48s4.95,9.81,15.83,9.59l84.68-1.67a13.62,13.62,0,0,0,.85,2.65l-51.95,90.14-11,17.7S350.83,245.83,355.13,253.21Zm32.19,43a8.5,8.5,0,1,1-3.1,11.62A8.51,8.51,0,0,1,387.32,296.17Zm49.32-163.36a8.5,8.5,0,1,1,3.1-11.61A8.5,8.5,0,0,1,436.64,132.81Z"/><path class="cls-1" d="M304.93,161.86l8.07.07h.48l40.56.44a14.22,14.22,0,1,0-.45-11.37l-26.73-.27c-16.29.54-19.43-8.13-19.43-8.13L246.62,37.52a14.07,14.07,0,0,0,2.08-7.12,14.24,14.24,0,0,0-28.48-.31A14.06,14.06,0,0,0,223.28,39L184.8,103.07a14.3,14.3,0,0,1-10.9,6.62l-44.51-.48-10.6,16.28,53,.58s11,.76,16.33-8.71l41.75-73.69a14.52,14.52,0,0,0,2.72.62l51,90.66,9.61,18.5S296.39,161.8,304.93,161.86Zm53.37-5.76a8.5,8.5,0,1,1,8.41,8.59A8.51,8.51,0,0,1,358.3,156.1ZM243,30.34a8.5,8.5,0,1,1-8.41-8.6A8.51,8.51,0,0,1,243,30.34Z"/><path class="cls-1" d="M200.57,157.49l4-7c.15-.24.24-.41.24-.41L225.23,115a14.22,14.22,0,1,0-10.12-5.21L201.7,132.93C194.13,147.37,185,145.82,185,145.82l-121.4,1.09a14,14,0,0,0-5.17-5.32,14.24,14.24,0,1,0-5.1,26.33L90.18,233a14.33,14.33,0,0,1,.39,12.75L68.2,284.24l8.94,17.25,26.66-45.85s6.06-9.17.47-18.5L60.75,164.47a13.62,13.62,0,0,0,1.88-2.05l104,.31,20.83.76S196.3,164.9,200.57,157.49Zm21.3-49.27a8.5,8.5,0,1,1,11.62-3.08A8.52,8.52,0,0,1,221.87,108.22ZM55.58,146.55A8.5,8.5,0,1,1,44,149.63,8.5,8.5,0,0,1,55.58,146.55Z"/><path class="cls-1" d="M144.34,246.93l-4.07-7-.24-.41-20.35-35.1a14.2,14.2,0,1,0-9.54,6.21l13.43,23.11c8.78,13.73,2.93,20.86,2.93,20.86l-59.26,106a14.11,14.11,0,0,0-7.18,1.86,14.24,14.24,0,0,0,14.28,24.64,14.07,14.07,0,0,0,6.06-7.16l74.78.32a14.32,14.32,0,0,1,11.26,6l22.32,38.51,19.42.79-26.6-45.89s-5-9.81-15.84-9.58l-84.68,1.76a13.4,13.4,0,0,0-.85-2.65L132.07,279l11-17.71S148.65,254.31,144.34,246.93ZM112.11,204a8.5,8.5,0,1,1,3.09-11.62A8.52,8.52,0,0,1,112.11,204ZM62.94,367.4A8.5,8.5,0,1,1,59.85,379,8.52,8.52,0,0,1,62.94,367.4Z"/><path class="cls-1" d="M299.4,343.39l-4,7-.23.41-20.08,35.26a14.21,14.21,0,1,0,10.17,5.12L298.49,368c7.44-14.51,16.55-13,16.55-13l121.38-2.17a14.23,14.23,0,1,0,10.08-21.11l-37.39-64.76a14.3,14.3,0,0,1-.5-12.74l22-38.68-9.1-17.17-26.25,46.09s-6,9.22-.3,18.5l44.17,72.28a13.13,13.13,0,0,0-1.87,2.06l-104,.63-20.84-.58S303.61,336,299.4,343.39Zm-20.85,49.47A8.5,8.5,0,1,1,267,396,8.51,8.51,0,0,1,278.55,392.86ZM444.48,353a8.5,8.5,0,1,1,11.59-3.18A8.51,8.51,0,0,1,444.48,353Z"/><path class="cls-1" d="M194.39,338.88l-8.07,0c-.28,0-.48,0-.48,0l-40.57,0a14.2,14.2,0,1,0,.58,11.37l26.72,0c16.3-.7,19.52,7.93,19.52,7.93L254,462.61a14,14,0,0,0-2,7.14,14.24,14.24,0,1,0,25.33-8.82l37.8-64.52A14.31,14.31,0,0,1,326,389.68l44.51,0,10.43-16.4-53,0s-11-.63-16.24,8.89l-41,74.13a13.59,13.59,0,0,0-2.72-.6l-52-90.12-9.8-18.39S202.93,338.86,194.39,338.88Zm-53.31,6.33a8.5,8.5,0,1,1-8.5-8.5A8.51,8.51,0,0,1,141.08,345.21ZM257.74,469.75a8.5,8.5,0,1,1,8.49,8.51A8.49,8.49,0,0,1,257.74,469.75Z"/><path class="cls-1" d="M164.39,234.52c-1.37,0-1.79-.69-1.26-2.05l4.33-10.7a3.08,3.08,0,0,1,2.91-2.13H219.8c1.46,0,1.88.71,1.25,2.13l-4.32,10.7a2.92,2.92,0,0,1-2.92,2.05Zm29.51,3.38c1.37,0,1.78.68,1.26,2l-13.85,34.23a3.08,3.08,0,0,1-2.91,2.13H166q-2.21,0-1.26-2.13L178.63,240a2.9,2.9,0,0,1,2.91-2Z"/><path class="cls-1" d="M210.79,263,223,232.94q3-7.4,7.12-10.35t11.53-3h26.68q5.67,0,8,3.86t0,9.44L264.15,263q-3,7.39-7.16,10.35t-11.57,2.95h-9.37c-1.41,0-1.81-.71-1.18-2.13l4.33-10.7a2.85,2.85,0,0,1,2.83-2.05h5.43a1,1,0,0,0,1.11-.78L258.8,235.3c.15-.52,0-.78-.47-.78H239.67a1,1,0,0,0-1.1.78l-10.23,25.35c-.16.52,0,.78.47.78h5.43c1.37,0,1.78.69,1.26,2.05l-4.33,10.7a3.08,3.08,0,0,1-2.91,2.13h-9.52q-5.6,0-7.91-3.86T210.79,263Z"/><path class="cls-1" d="M284,274.26a2.94,2.94,0,0,1-3,2.05H268.64c-1.41,0-1.81-.68-1.18-2.05l21.18-52.49a2.83,2.83,0,0,1,2.83-2.05h36.36q5.58,0,7.91,3.86t0,9.44L330,247.27q-3,7.39-7.12,10.35t-11.53,2.95H295.17c-1.42,0-1.81-.71-1.18-2.13l4-10.07a4,4,0,0,1,1.06-1.69,3.41,3.41,0,0,1,1.85-.36H313a1.1,1.1,0,0,0,1.1-.71l4.18-10.39c.21-.47.05-.7-.48-.7H300.68a1.1,1.1,0,0,0-1.1.7Z"/></svg>